<svg xmlns="http://www.w3.org/2000/svg" viewBox="0 0 60 60"><defs><style>.cls-1{fill:#fff;}</style></defs><title>icon_especialist--white</title><g id="Capa_2" data-name="Capa 2"><g id="Recuadros"><path class="cls-1" d="M35.94,22.16v-.32c0-2.21,0-4.43,0-6.64a.41.41,0,0,0-.32-.46,16.42,16.42,0,0,0-5.24-1,16.11,16.11,0,0,0-6,1,.39.39,0,0,0-.3.45c0,2.21,0,4.42,0,6.63v.34A17,17,0,0,1,35.94,22.16Z"/><path class="cls-1" d="M29.26,41.5l-3.64-5.82c-.39-.62-.39-.65,0-1.21,0,0,0,0,0,0a2.25,2.25,0,0,0-1.7,2,6.09,6.09,0,0,0,.37,2.31c.08.25.19.38.48.32a1.25,1.25,0,0,1,.38,0,1.71,1.71,0,0,1,1.25,2.06,1.67,1.67,0,0,1-2.05,1.22,1.61,1.61,0,0,1-1.18-2,1.76,1.76,0,0,0-.07-1.41,1.55,1.55,0,0,1-.07-.23c-.13-.61-.26-1.22-.41-1.88-.43.1-.88.18-1.32.29a3.29,3.29,0,0,0-2,1.8,13.54,13.54,0,0,0-1.53,4.25,15.1,15.1,0,0,0-.33,3.1h2.67V45a.64.64,0,0,1,.33-.61.61.61,0,0,1,.89.6c0,.44,0,.88,0,1.32h8s0-.09,0-.13c0-1.42,0-2.83,0-4.25A.79.79,0,0,0,29.26,41.5Z"/><path class="cls-1" d="M24.8,41.21a.45.45,0,0,0,.48-.48.48.48,0,0,0-.49-.48.51.51,0,0,0-.46.49A.48.48,0,0,0,24.8,41.21Z"/><path class="cls-1" d="M29.69,32.62a4.61,4.61,0,0,0,4-2.13,11.36,11.36,0,0,0,1.73-3.91,14.5,14.5,0,0,0,.47-3.15c-.78-.23-1.55-.51-2.35-.71a15,15,0,0,0-4.77-.37,16.21,16.21,0,0,0-4.35,1c-.29.11-.42.24-.39.57a16,16,0,0,0,.86,4.05,8.62,8.62,0,0,0,2.19,3.58A3.92,3.92,0,0,0,29.69,32.62Z"/><path class="cls-1" d="M33.16,34.87a2.46,2.46,0,0,1-.23-.66c-.07-.38-.11-.76-.16-1.15a5.5,5.5,0,0,1-5.56,0,2.69,2.69,0,0,1,0,.31c-.13.5-.24,1-.4,1.5a.4.4,0,0,0,0,.41l3.05,4.87.16.23c1-1.69,2.09-3.37,3.14-5A.44.44,0,0,0,33.16,34.87Z"/><path class="cls-1" d="M30,0A30,30,0,1,0,60,30,30,30,0,0,0,30,0ZM43,47.5H17a.64.64,0,0,1-.71-.68,21.54,21.54,0,0,1,.53-4.59A13.41,13.41,0,0,1,19,37.36a4,4,0,0,1,2.4-1.49c.42-.1.85-.15,1.27-.24a.43.43,0,0,0,.29-.18,3.75,3.75,0,0,1,2.81-2.36L26,33c0-.29,0-.57,0-.84a.53.53,0,0,0-.14-.28,11.13,11.13,0,0,1-2.25-4.29,17.28,17.28,0,0,1-.72-5.2c0-2.62,0-5.24,0-7.85a.64.64,0,0,1,.46-.68,16.81,16.81,0,0,1,8.9-1.23,18.82,18.82,0,0,1,4.48,1.22.65.65,0,0,1,.48.72c0,2.72,0,5.44,0,8.17a16.57,16.57,0,0,1-.83,5.18,12.18,12.18,0,0,1-2.14,4c-.2.24-.12.71-.14,1.07,0,0,.17.1.27.13a4.14,4.14,0,0,1,2,1.17,3.68,3.68,0,0,1,.64,1c.12.27.29.31.53.36.67.16,1.35.31,2,.53A3,3,0,0,1,41,37.31a13,13,0,0,1,2.13,4.62,21.46,21.46,0,0,1,.6,4.43c0,.13,0,.26,0,.39A.63.63,0,0,1,43,47.5Z"/><path class="cls-1" d="M40.07,38.12a3.54,3.54,0,0,0-2.82-1.26,5.41,5.41,0,0,1-.08.74c-.07.23,0,.32.21.43A3.05,3.05,0,0,1,39,41.15c-.19,1.06-.49,2.1-.75,3.15a.51.51,0,0,1-.61.42,4.85,4.85,0,0,1-.92-.19.54.54,0,0,1-.37-.55c0-.45.31-.66.89-.58,0-.06.05-.11.06-.15.17-.73.35-1.45.49-2.18a1.92,1.92,0,0,0-3.72-.89c-.2.8-.33,1.63-.49,2.45l.18,0a.6.6,0,1,1-.27,1.17l-.72-.13a.6.6,0,0,1-.45-.67c.15-.88.28-1.76.46-2.64a3.14,3.14,0,0,1,3-2.78.28.28,0,0,0,.2-.18,3.21,3.21,0,0,0-.1-1.71,2.25,2.25,0,0,0-1.58-1.31,1.93,1.93,0,0,0,.17.21.6.6,0,0,1,0,.81q-1.87,3-3.74,6a1.09,1.09,0,0,0-.16.52c0,1.33,0,2.66,0,4,0,.1,0,.19,0,.28h8c0-.47,0-.92,0-1.37a.6.6,0,0,1,.92-.53.62.62,0,0,1,.28.58v1.32h2.68v-.19c-.13-1-.21-2.12-.41-3.16A11.4,11.4,0,0,0,40.07,38.12Z"/></g></g></svg>