<svg xmlns="http://www.w3.org/2000/svg" viewBox="0 0 60 60"><defs><style>.cls-1{fill:#fff;}</style></defs><title>icon_tecnologia--white</title><g id="Capa_2" data-name="Capa 2"><g id="Recuadros"><path class="cls-1" d="M28.48,37.87c-.25,0-.27.12-.27.31v4.51c0,.09,0,.17,0,.27H39.09V37.89l-.16,0Zm6.76,2.55q-1.58,0-3.15,0a.62.62,0,0,1-.67-.67c0-.38.28-.6.73-.6h3a.64.64,0,0,1,.71.6A.62.62,0,0,1,35.24,40.42Z"/><path class="cls-1" d="M34.85,19.28a.91.91,0,0,1-.86-.46c-.16-.28-.36-.53-.57-.85-.26.53-.5,1-.74,1.47a.65.65,0,0,1-1.15.18c-.29-.27-.56-.56-.85-.84a.59.59,0,0,0-.27-.16c-.51,0-1,0-1.54,0v2.53H39.1V19.27H34.85Z"/><path class="cls-1" d="M11.94,32.74a.88.88,0,0,0-.23,0c-.06,0-.15.08-.17.14-.17.71.16,1.13.91,1.13H24.33V32.74H11.94Z"/><path class="cls-1" d="M41,46.87H39.77c0,.4-.12.81.24,1.1a.59.59,0,0,0,.7.07C41.17,47.77,41,47.32,41,46.87Z"/><rect class="cls-1" x="28.24" y="25.07" width="11.49" height="1.2"/><path class="cls-1" d="M28.88,17.31c.58,0,1.16,0,1.73,0a.87.87,0,0,1,.74.32l.51.59c.32-.65.58-1.18.85-1.71A.66.66,0,0,1,34,16.44c.3.43.58.88.88,1.31a.5.5,0,0,0,.33.21c1.24,0,2.48,0,3.73,0,.18,0,.24-.07.24-.25,0-.89,0-1.79,0-2.69,0-.21-.09-.28-.29-.28h-9.7c-.23,0-.3.09-.3.31,0,.69,0,1.38,0,2.07C28.85,17.18,28.87,17.23,28.88,17.31Z"/><path class="cls-1" d="M26.29,46.87c0,.42-.14.88.33,1.15a.54.54,0,0,0,.66,0c.4-.3.28-.72.28-1.13Z"/><path class="cls-1" d="M27.72,23.73l13.08,0c.65,0,.87-.22.87-.87V13c0-.63-.19-.82-.84-.82H27.07c-.56,0-.77.21-.77.79,0,1.47,0,2.94,0,4.41,0,1.86,0,3.72,0,5.58a.68.68,0,0,0,.77.78C27.29,23.76,27.5,23.73,27.72,23.73Zm.72-10.26H39.5c.69,0,.89.2.89.89v7.26c0,.62-.22.86-.83.86H28.4c-.6,0-.82-.24-.82-.83V14.32C27.58,13.67,27.78,13.48,28.44,13.47Z"/><rect class="cls-1" x="15.39" y="30.21" width="2.52" height="1.21"/><path class="cls-1" d="M45.59,32.73h1.2V31.47H43.65v8.91h3.14V39.15c-.43,0-.83,0-1.23,0a.65.65,0,1,1,0-1.29h1.19V36.57H45.64c-.45,0-.74-.24-.75-.62s.28-.65.76-.66h1.14V34c-.43,0-.84,0-1.25,0a.65.65,0,1,1,.05-1.29Z"/><path class="cls-1" d="M46.84,28.89c-1.05,0-2.11,0-3.2,0v1.24h3.81c0-.23,0-.43,0-.64A.59.59,0,0,0,46.84,28.89Z"/><path class="cls-1" d="M21,28.88c.57,0,.81-.24.81-.81V22c0-.56-.24-.79-.79-.79h-8.6c-.66,0-.88.21-.88.87V28c0,.68.21.89.89.89,1.66,0,3.31,0,5,0ZM13.4,22.47c.67,0,1.35,0,2,0a.84.84,0,0,1,.47.23c.26.23.49.49.78.77a9.4,9.4,0,0,1,.78-.77,1,1,0,0,1,.57-.24c.59,0,1.19,0,1.78,0a.64.64,0,1,1,0,1.28c-.45,0-.89,0-1.33,0a.65.65,0,0,0-.39.16c-.3.27-.57.57-.86.85a.67.67,0,0,1-1.07,0c-.35-.35-.66-.82-1.09-1a4.53,4.53,0,0,0-1.48-.05c-.45,0-.69-.19-.74-.56A.61.61,0,0,1,13.4,22.47Zm.29,5.12a2,2,0,0,1-.35,0,.62.62,0,0,1-.52-.65.63.63,0,0,1,.6-.61h6.35a.7.7,0,0,1,.66.33.65.65,0,0,1-.61,1c-1.05,0-2.1,0-3.15,0S14.68,27.6,13.69,27.59Z"/><path class="cls-1" d="M30,0A30,30,0,1,0,60,30,30,30,0,0,0,30,0ZM48.75,42.23a2,2,0,0,1-2,2.05H43.62v1.05a1.34,1.34,0,0,1-1.29,1.52v.57a2,2,0,0,1-1.94,2,1.92,1.92,0,0,1-1.91-1.93v-.63h-9.6c0,.27,0,.52,0,.78A1.92,1.92,0,0,1,25,47.54a1.71,1.71,0,0,1,0-.32.84.84,0,0,0-.3-.8,1.28,1.28,0,0,1-.35-1V35.31h-12a1.94,1.94,0,0,1-2.12-2.11,4.18,4.18,0,0,1,0-.71,1.29,1.29,0,0,1,1.29-1c.83,0,1.66,0,2.51,0V30.15h-1.7a2,2,0,0,1-1.61-.63,1.75,1.75,0,0,1-.51-1.22q0-3.28,0-6.56a1.9,1.9,0,0,1,1.85-1.86q4.49,0,9,0a1.93,1.93,0,0,1,2,2v6.23a1.93,1.93,0,0,1-2,2c-.59,0-1.18,0-1.8,0v1.27h5.1V28.51a2,2,0,0,1,2.18-2.2h.38V25a1.82,1.82,0,0,1-1.64-1A2.46,2.46,0,0,1,25,23c0-3.37,0-6.73,0-10.1a2,2,0,0,1,2-2c4.62,0,9.24,0,13.86,0A2.06,2.06,0,0,1,43,13c0,3.25,0,6.5,0,9.74A2,2,0,0,1,41.06,25v1.27h.6a1.84,1.84,0,0,1,1.71,1,.4.4,0,0,0,.42.26c1,0,2,0,2.92,0a2,2,0,0,1,2,2.05v1c0,.48-.14.66-.64.83v8.94c.58.1.67.52.64,1C48.74,41.69,48.75,42,48.75,42.23Z"/><path class="cls-1" d="M42.32,30.21H25.67V45.57H42c.28,0,.31-.11.31-.35v-15Zm-4.48,1.24a.67.67,0,0,1,.64.64.67.67,0,0,1-.65.64.64.64,0,0,1-.63-.65A.62.62,0,0,1,37.84,31.45Zm0,2.57a.63.63,0,0,1,.63.65.66.66,0,0,1-.66.62.63.63,0,0,1-.62-.65A.61.61,0,0,1,37.85,34Zm-2.56-2.57a.62.62,0,0,1,.61.66.63.63,0,0,1-.66.62.66.66,0,0,1-.61-.67A.63.63,0,0,1,35.29,31.45Zm0,2.57a.6.6,0,0,1,.65.61.64.64,0,1,1-1.27,0A.62.62,0,0,1,35.25,34Zm-2.54-2.57a.66.66,0,0,1,.64.64.67.67,0,0,1-.69.64.64.64,0,0,1-.59-.65A.62.62,0,0,1,32.71,31.45Zm.64,3.21a.67.67,0,0,1-.68.63.65.65,0,0,1,0-1.29A.67.67,0,0,1,33.35,34.66Zm-3.21-3.22a.64.64,0,0,1,.63.66.62.62,0,0,1-.64.63.68.68,0,0,1-.64-.65A.67.67,0,0,1,30.14,31.44Zm.63,3.19a.63.63,0,0,1-.62.66.67.67,0,0,1-.66-.63.63.63,0,0,1,.63-.64A.62.62,0,0,1,30.77,34.63Zm-3.21-3.19a.65.65,0,0,1,0,1.29.66.66,0,0,1-.65-.64A.64.64,0,0,1,27.56,31.44Zm0,2.58a.62.62,0,0,1,.64.63.65.65,0,0,1-.64.64.63.63,0,0,1-.64-.64A.62.62,0,0,1,27.57,34Zm12,10.26H28a2.85,2.85,0,0,1-.51,0,.6.6,0,0,1-.54-.69V37.32a.66.66,0,0,1,.76-.75H39.53c.65,0,.86.21.86.85,0,2,0,4,0,6C40.39,44.06,40.18,44.27,39.53,44.28Zm.82-9a.65.65,0,0,1,.1-1.29.65.65,0,0,1-.1,1.29Zm0-2.56a.63.63,0,0,1-.61-.63.65.65,0,0,1,.62-.66.65.65,0,1,1,0,1.29Z"/><path class="cls-1" d="M41.45,27.6H26.52c-.68,0-.85.19-.88.86,0,.34.11.39.4.39H41.91a.75.75,0,0,0,.26,0,.2.2,0,0,0,.14-.13C42.47,28,42.15,27.6,41.45,27.6Z"/><path class="cls-1" d="M43.64,43c1.08,0,2.14,0,3.2,0a.62.62,0,0,0,.61-.59c0-.22,0-.43,0-.65H43.64Z"/></g></g></svg>