<svg xmlns="http://www.w3.org/2000/svg" viewBox="0 0 23.21 23.21"><defs><style>.cls-1{fill:#40b1dd;}</style></defs><title>icon_up</title><g id="Capa_2" data-name="Capa 2"><g id="Servicios"><path class="cls-1" d="M16.89,14.73a.74.74,0,0,1-.53-.22L11.89,10,7.42,14.51a.75.75,0,1,1-1.06-1.06l5-5a.75.75,0,0,1,1.06,0l5,5a.75.75,0,0,1,0,1.06A.74.74,0,0,1,16.89,14.73Z"/><path class="cls-1" d="M11.6,23.21A11.61,11.61,0,1,1,23.21,11.6,11.62,11.62,0,0,1,11.6,23.21Zm0-21.71A10.11,10.11,0,1,0,21.71,11.6,10.11,10.11,0,0,0,11.6,1.5Z"/></g></g></svg>