<svg xmlns="http://www.w3.org/2000/svg" viewBox="0 0 32.52 32.52"><defs><style>.cls-1{fill:#40b1dd;}</style></defs><title>icon_left</title><g id="Capa_2" data-name="Capa 2"><g id="Contacto"><path class="cls-1" d="M16.26,0A16.26,16.26,0,1,0,32.52,16.26,16.26,16.26,0,0,0,16.26,0ZM23,16.53a.54.54,0,0,1-.1.16l-6.58,6.57a.47.47,0,0,1-.35.15.49.49,0,0,1-.35-.15.5.5,0,0,1,0-.71l5.72-5.71H10.74a.5.5,0,0,1-.5-.5.5.5,0,0,1,.5-.5H21.38l-5.72-5.72a.5.5,0,0,1,0-.71.48.48,0,0,1,.7,0L22.94,16a.54.54,0,0,1,.1.16.45.45,0,0,1,0,.2A.43.43,0,0,1,23,16.53Z"/></g></g></svg>