<svg xmlns="http://www.w3.org/2000/svg" viewBox="0 0 79.45 79.45"><defs><style>.cls-1{fill:#40b1dd;}</style></defs><title>icon_especialist--blue</title><g id="Capa_2" data-name="Capa 2"><g id="Especialistas"><path class="cls-1" d="M38.74,55l-4.82-7.72c-.51-.81-.5-.85.06-1.6,0,0,0,0,0-.07a3,3,0,0,0-2.26,2.67,8.2,8.2,0,0,0,.5,3.06c.1.33.25.5.63.42a1.21,1.21,0,0,1,.5,0A2.25,2.25,0,0,1,35,54.48,2.22,2.22,0,0,1,32.3,56.1a2.12,2.12,0,0,1-1.56-2.68,2.41,2.41,0,0,0-.1-1.87,1.49,1.49,0,0,1-.09-.3c-.18-.8-.35-1.61-.54-2.49-.57.13-1.16.24-1.75.39a4.37,4.37,0,0,0-2.6,2.38,18,18,0,0,0-2,5.62,20.69,20.69,0,0,0-.43,4.11h3.54V59.53a.86.86,0,0,1,.44-.82.8.8,0,0,1,1.16.8c0,.58,0,1.16,0,1.75H38.9a1.28,1.28,0,0,0,0-.17c0-1.88,0-3.76,0-5.63A1,1,0,0,0,38.74,55Z"/><path class="cls-1" d="M39.31,43.2a6.09,6.09,0,0,0,5.35-2.82A15,15,0,0,0,47,35.2,18.72,18.72,0,0,0,47.58,31c-1-.31-2.06-.67-3.11-.94a20,20,0,0,0-6.32-.5,21.61,21.61,0,0,0-5.77,1.28.63.63,0,0,0-.5.75A21,21,0,0,0,33,37a11.41,11.41,0,0,0,2.9,4.74A5.3,5.3,0,0,0,39.31,43.2Z"/><path class="cls-1" d="M47.6,29.35v-.43c0-2.93,0-5.86,0-8.79a.54.54,0,0,0-.43-.61,21.19,21.19,0,0,0-14.92,0,.53.53,0,0,0-.41.59c0,2.93,0,5.86,0,8.79v.44A22.5,22.5,0,0,1,47.6,29.35Z"/><path class="cls-1" d="M32.84,54.56a.59.59,0,0,0,.64-.63.65.65,0,0,0-.65-.64.69.69,0,0,0-.61.66A.61.61,0,0,0,32.84,54.56Z"/><path class="cls-1" d="M39.73,0A39.73,39.73,0,1,0,79.45,39.73,39.73,39.73,0,0,0,39.73,0ZM57,62.9H22.51a.85.85,0,0,1-.94-.9,28.12,28.12,0,0,1,.71-6.07,17.54,17.54,0,0,1,2.84-6.45,5.23,5.23,0,0,1,3.17-2c.56-.13,1.13-.2,1.69-.32.14,0,.35-.12.39-.24a5,5,0,0,1,3.72-3.12l.28-.1c0-.38,0-.74,0-1.1a.71.71,0,0,0-.18-.38,14.66,14.66,0,0,1-3-5.68,22.57,22.57,0,0,1-.94-6.89c0-3.46,0-6.93,0-10.39a.86.86,0,0,1,.61-.9,22.73,22.73,0,0,1,5.42-1.56,22.29,22.29,0,0,1,6.37-.07,24.67,24.67,0,0,1,5.93,1.61.87.87,0,0,1,.63,1c0,3.6,0,7.21,0,10.82A21.33,21.33,0,0,1,48.09,37a16.21,16.21,0,0,1-2.83,5.25c-.26.31-.16.93-.18,1.41,0,.05.22.13.35.17a5.48,5.48,0,0,1,2.66,1.55,4.83,4.83,0,0,1,.85,1.34c.16.36.39.41.7.48.89.21,1.79.41,2.67.69a4.07,4.07,0,0,1,1.94,1.52,17.06,17.06,0,0,1,2.81,6.12,27.55,27.55,0,0,1,.79,5.86c0,.17,0,.34,0,.51A.83.83,0,0,1,57,62.9Z"/><path class="cls-1" d="M53.06,50.48c-.92-1.27-2.29-1.53-3.73-1.67a6.91,6.91,0,0,1-.12,1c-.08.3,0,.42.28.57a4,4,0,0,1,2.14,4.13c-.26,1.41-.64,2.78-1,4.17a.68.68,0,0,1-.81.56A6.47,6.47,0,0,1,48.61,59a.7.7,0,0,1-.49-.72c0-.59.42-.88,1.17-.76,0-.09.07-.15.09-.21.22-1,.47-1.92.65-2.89a2.54,2.54,0,0,0-4.93-1.17c-.26,1.06-.43,2.15-.65,3.25a1.36,1.36,0,0,1,.24.06.77.77,0,0,1,.64.95.78.78,0,0,1-1,.59,8.05,8.05,0,0,1-1-.17.78.78,0,0,1-.59-.88c.19-1.17.37-2.34.6-3.5a4.16,4.16,0,0,1,4-3.68.38.38,0,0,0,.27-.24,4.39,4.39,0,0,0-.14-2.27,3,3,0,0,0-2.09-1.73l.22.29a.77.77,0,0,1,.07,1.06q-2.49,4-5,8a1.41,1.41,0,0,0-.2.69c0,1.76,0,3.51,0,5.27,0,.13,0,.25,0,.37H51.11c0-.63,0-1.22,0-1.82a.78.78,0,0,1,1.21-.69.82.82,0,0,1,.38.77c0,.58,0,1.16,0,1.74h3.55a2.24,2.24,0,0,0,0-.26c-.18-1.39-.28-2.8-.54-4.17A15.24,15.24,0,0,0,53.06,50.48Z"/><path class="cls-1" d="M43.91,46.17a3.32,3.32,0,0,1-.3-.87c-.1-.5-.15-1-.21-1.52a7.31,7.31,0,0,1-7.37,0,2.46,2.46,0,0,1,0,.41c-.17.67-.32,1.33-.53,2a.57.57,0,0,0,0,.55c1.36,2.15,2.7,4.3,4,6.45.06.1.13.19.21.3,1.39-2.24,2.76-4.46,4.15-6.67A.59.59,0,0,0,43.91,46.17Z"/></g></g></svg>