<svg xmlns="http://www.w3.org/2000/svg" viewBox="0 0 161.74 22.81"><defs><style>.cls-1{fill:#258cb8;}</style></defs><title>logo_endo</title><g id="Capa_2" data-name="Capa 2"><g id="Barra_top" data-name="Barra top"><g id="_Grupo_" data-name="&lt;Grupo&gt;"><polygon id="_Trazado_" data-name="&lt;Trazado&gt;" class="cls-1" points="0 17.53 11.09 17.53 11.09 15.52 2.01 15.52 2.01 10.69 8.05 10.69 8.05 8.68 2.01 8.68 2.01 4.45 11.09 4.45 11.09 2.43 0 2.43 0 17.53"/><polygon id="_Trazado_2" data-name="&lt;Trazado&gt;" class="cls-1" points="23.8 14.05 14.29 2.43 12.51 2.43 12.51 17.53 14.52 17.53 14.52 5.9 24.02 17.53 25.83 17.53 25.83 2.43 23.8 2.43 23.8 14.05"/><path id="_Trazado_compuesto_" data-name="&lt;Trazado compuesto&gt;" class="cls-1" d="M34.83,2.43H28.05v15.1h6.78c3.82,0,7.05-3.48,7.05-7.61A7.38,7.38,0,0,0,34.83,2.43Zm-.48,13.09H30.06V4.45h4.29a5.51,5.51,0,0,1,5.54,5.47A5.57,5.57,0,0,1,34.35,15.52Z"/><path id="_Trazado_3" data-name="&lt;Trazado&gt;" class="cls-1" d="M67.38,3.78A5.84,5.84,0,0,1,71.8,5.57a5.91,5.91,0,0,1,1.48,2.3h1.1A7.28,7.28,0,0,0,60.15,10a7.28,7.28,0,0,0,14.23,2.1H73.3a6.22,6.22,0,0,1-1.5,2.33,6,6,0,0,1-4.42,1.77A6.22,6.22,0,0,1,63,14.43,6.23,6.23,0,0,1,61.2,10a6,6,0,0,1,6.18-6.22Z"/><path id="_Trazado_compuesto_2" data-name="&lt;Trazado compuesto&gt;" class="cls-1" d="M83.63,2.73A7.2,7.2,0,0,0,76.4,10a7.27,7.27,0,0,0,14.54,0A7.2,7.2,0,0,0,83.63,2.73Zm4.43,11.7a6.05,6.05,0,0,1-4.43,1.77,6.24,6.24,0,0,1-4.43-1.77A6.23,6.23,0,0,1,77.45,10a6,6,0,0,1,6.18-6.22,5.88,5.88,0,0,1,4.43,1.79A5.91,5.91,0,0,1,89.89,10,6.1,6.1,0,0,1,88.06,14.43Z"/><path id="_Trazado_4" data-name="&lt;Trazado&gt;" class="cls-1" d="M103.9,11.31a4.91,4.91,0,1,1-9.82,0V2.94h-1v8.37a5.92,5.92,0,1,0,11.84,0V2.94h-1Z"/><polygon id="_Trazado_5" data-name="&lt;Trazado&gt;" class="cls-1" points="118.82 15.46 108.58 2.94 107.53 2.94 107.53 17.03 108.54 17.03 108.54 4.49 118.78 17.03 119.85 17.03 119.85 2.94 118.82 2.94 118.82 15.46"/><polygon id="_Trazado_6" data-name="&lt;Trazado&gt;" class="cls-1" points="122.27 3.94 127.3 3.94 127.3 17.03 128.31 17.03 128.31 3.94 133.34 3.94 133.34 2.94 122.27 2.94 122.27 3.94"/><path id="_Trazado_7" data-name="&lt;Trazado&gt;" class="cls-1" d="M147.78,8a5.06,5.06,0,0,0-5.05-5.05h-7V17h1V3.94h6a4.19,4.19,0,0,1,4,4.05,4.1,4.1,0,0,1-4,4h-1.55l5,5h1.41L143.53,13A5,5,0,0,0,147.78,8Z"/><polygon id="_Trazado_8" data-name="&lt;Trazado&gt;" class="cls-1" points="160.53 2.94 155.78 10 151 2.94 149.8 2.94 155.27 11.01 155.27 17.03 156.28 17.03 156.28 11.01 161.74 2.94 160.53 2.94"/><g id="_Grupo_2" data-name="&lt;Grupo&gt;"><path id="_Trazado_9" data-name="&lt;Trazado&gt;" class="cls-1" d="M161.14,22.81H48.46a3.21,3.21,0,0,1-3.34-2.72,3.11,3.11,0,0,1,2.72-3.44s.34,0,.5,0l2.74,0a6.33,6.33,0,0,0,6.23-6.4A6.42,6.42,0,0,0,53.65,4.4l-.25-.12A4.09,4.09,0,0,1,51.25.67a4.91,4.91,0,0,1,0-.67L53,.29a2.34,2.34,0,0,0,0,.38,2.31,2.31,0,0,0,1.2,2l.18.09a8.21,8.21,0,0,1,4.68,7.44,8.09,8.09,0,0,1-8,8.16l-2.68,0c-.13,0-.35,0-.36,0a1.34,1.34,0,0,0-1.16,1.48,1.47,1.47,0,0,0,1.59,1.17H161.14Z"/></g><path id="_Trazado_10" data-name="&lt;Trazado&gt;" class="cls-1" d="M45.6,15.44a3.37,3.37,0,0,1,1.18-.56A6.49,6.49,0,0,1,48.59,4.35l-.72-1.6A8.24,8.24,0,0,0,45.23,15.8,2.53,2.53,0,0,1,45.6,15.44Z"/></g></g></g></svg>